<?xml version="1.0" encoding="utf-8"?>
<!-- Generator: Adobe Illustrator 21.0.2, SVG Export Plug-In . SVG Version: 6.00 Build 0)  -->
<svg version="1.1" id="Layer_1" xmlns="http://www.w3.org/2000/svg" xmlns:xlink="http://www.w3.org/1999/xlink" x="0px" y="0px"
	 viewBox="0 0 30 30" style="enable-background:new 0 0 30 30;" xml:space="preserve">
<style type="text/css">
	.st0{fill:#757575;}
</style>
<path class="st0" d="M24.3,4.3c0.2,0,0.3,0,0.5,0.1c0.1,0.1,0.3,0.2,0.4,0.3c0.1,0.1,0.2,0.3,0.3,0.4c0.1,0.2,0.1,0.3,0.1,0.5v2.2
	H4.2V5.6c0-0.2,0-0.4,0.1-0.5c0.1-0.2,0.2-0.3,0.3-0.4C4.7,4.6,4.8,4.5,5,4.4c0.1-0.1,0.3-0.1,0.5-0.1h5.3V2c0-0.2,0-0.4,0.1-0.5
	s0.2-0.3,0.3-0.4s0.2-0.2,0.4-0.3s0.3-0.1,0.5-0.1h5.7c0.2,0,0.3,0,0.5,0.1c0.1,0.1,0.3,0.2,0.4,0.3s0.2,0.3,0.3,0.4
	c0.1,0.2,0.1,0.3,0.1,0.5v2.2h5.2V4.3z M5.8,9.6h18v17.9c0,0.2,0,0.5-0.1,0.7s-0.2,0.4-0.4,0.6c-0.1,0.2-0.3,0.3-0.5,0.4
	s-0.4,0.1-0.6,0.1H7.5c-0.2,0-0.4,0-0.6-0.1S6.5,29,6.3,28.8C6.2,28.7,6,28.5,6,28.3s-0.1-0.5-0.1-0.7L5.8,9.6L5.8,9.6z"/>
</svg>
